<svg width="22" height="30" viewBox="0 0 22 30" fill="none" xmlns="http://www.w3.org/2000/svg">
<mask id="mask0_24_10" style="mask-type:alpha" maskUnits="userSpaceOnUse" x="0" y="0" width="23" height="30">
<path d="M10.9812 29.9999C10.3027 29.2842 9.62861 28.5953 8.98265 27.8814C6.89888 25.5804 4.98726 23.1496 3.36555 20.5042C2.02378 18.307 0.895836 16.014 0.320537 13.4911C-0.281942 10.8474 -0.0663193 8.2834 1.23377 5.8786C3.09194 2.44139 6.00377 0.430238 9.94027 0.0535942C15.7386 -0.500189 20.7487 3.2913 21.825 8.94185C22.1874 10.8403 21.959 12.6993 21.4109 14.5316C20.5321 17.4669 19.0137 20.0855 17.2688 22.5833C15.4831 25.1256 13.4795 27.5118 11.2802 29.7154C11.1951 29.8031 11.1045 29.8809 10.9812 29.9999ZM10.9957 18.7614C12.0492 18.764 13.0928 18.5611 14.0667 18.1643C15.0405 17.7675 15.9254 17.1847 16.6705 16.4492C17.4156 15.7138 18.0062 14.8403 18.4085 13.8788C18.8108 12.9173 19.0168 11.8868 19.0146 10.8465C19.0187 9.80914 18.8156 8.78112 18.417 7.82127C18.0184 6.86143 17.4321 5.98858 16.6916 5.25266C15.9512 4.51673 15.0711 3.93216 14.1017 3.53236C13.1322 3.13257 12.0925 2.9254 11.0419 2.92271C9.98595 2.91526 8.93892 3.11453 7.96137 3.509C6.98382 3.90348 6.09513 4.48534 5.34664 5.22097C4.59815 5.95659 4.00471 6.83139 3.6006 7.79483C3.1965 8.75826 2.98974 9.79122 2.99228 10.834C2.98858 11.8741 3.1929 12.9046 3.5935 13.8664C3.9941 14.8283 4.5831 15.7026 5.3267 16.4391C6.07031 17.1757 6.95388 17.76 7.92672 18.1585C8.89956 18.557 9.94252 18.7619 10.9957 18.7614Z" fill="black"/>
<path d="M15.082 13.9671L14.6408 14.0038C14.6408 14.2552 14.6462 14.4967 14.6408 14.7383C14.629 15.1632 14.4478 15.3422 14.0129 15.3574C13.7991 15.3645 13.5835 15.3663 13.3688 15.3574C12.9629 15.3377 12.7772 15.1453 12.7699 14.7437C12.7654 14.5102 12.7699 14.2766 12.7699 14.0145H9.22207C9.22207 14.2453 9.2266 14.4851 9.22207 14.7249C9.21302 15.1462 9.02457 15.3413 8.60238 15.3574C8.36549 15.3699 8.12808 15.3699 7.89118 15.3574C7.53876 15.3341 7.36028 15.1462 7.34759 14.7964C7.33763 14.5424 7.34759 14.2874 7.34759 14.0181L6.94081 13.968V10.9316L6.59653 10.9047C6.34014 10.8851 6.20153 10.7401 6.1979 10.4932C6.19065 9.89022 6.18794 9.28724 6.1979 8.68425C6.20515 8.23066 6.57026 8.25661 6.93447 8.22619C6.93447 7.92291 6.93447 7.62768 6.93447 7.33155C6.93447 6.45212 7.41554 5.93323 8.30884 5.88223C8.80441 5.85271 9.30542 5.86971 9.801 5.86881C11.0105 5.86881 12.22 5.86076 13.4295 5.87507C13.711 5.87446 13.9907 5.92073 14.2566 6.01195C14.7948 6.20878 15.0838 6.60868 15.0784 7.19378C15.0784 7.52748 15.0784 7.86118 15.0784 8.20919C15.1789 8.2253 15.2532 8.24051 15.3284 8.24677C15.7026 8.28076 15.8158 8.39886 15.8185 8.78355C15.8185 9.29708 15.8185 9.8106 15.8185 10.3241C15.8185 10.7938 15.7352 10.8761 15.2505 10.9119C15.195 10.9195 15.14 10.9299 15.0856 10.9432L15.082 13.9671ZM7.63389 7.68046V10.9674H10.5122V7.68046H7.63389ZM11.487 10.9611H14.3717V7.68493H11.487V10.9611ZM8.82525 12.5938C8.81644 12.4264 8.74194 12.2689 8.61755 12.1548C8.49315 12.0406 8.32863 11.9788 8.15887 11.9824C7.9891 11.986 7.82743 12.0548 7.70812 12.1741C7.58881 12.2934 7.52124 12.4539 7.51973 12.6216C7.52854 12.789 7.60304 12.9465 7.72744 13.0606C7.85183 13.1748 8.01635 13.2366 8.18611 13.233C8.35588 13.2294 8.51755 13.1606 8.63686 13.0413C8.75617 12.922 8.82374 12.7615 8.82525 12.5938ZM13.8752 11.981C13.705 11.9691 13.5368 12.0236 13.4068 12.1329C13.2769 12.2421 13.1956 12.3973 13.1803 12.5652C13.1731 12.7331 13.2325 12.8972 13.346 13.0224C13.4594 13.1477 13.6179 13.2244 13.7876 13.236C13.9574 13.2477 14.1251 13.1934 14.255 13.0849C14.3849 12.9763 14.4667 12.8219 14.4831 12.6547C14.4881 12.571 14.4764 12.4871 14.4485 12.408C14.4207 12.3288 14.3773 12.2558 14.3208 12.1932C14.2643 12.1306 14.1959 12.0797 14.1194 12.0433C14.043 12.0068 13.96 11.9857 13.8752 11.981Z" fill="black"/>
</mask>
<g mask="url(#mask0_24_10)">
<rect x="-19" y="-12" width="75" height="71" fill="#FFA500"/>
</g>
</svg>
