<svg width="34" height="42" viewBox="0 0 34 42" fill="none" xmlns="http://www.w3.org/2000/svg">
<path d="M17 0C12.4913 0 8.1673 1.76999 4.97918 4.92059C1.79107 8.07119 0 12.3443 0 16.7999C0 28.1399 14.9813 40.9499 15.6188 41.4959C16.0037 41.8212 16.4935 42 17 42C17.5065 42 17.9963 41.8212 18.3812 41.4959C19.125 40.9499 34 28.1399 34 16.7999C34 12.3443 32.2089 8.07119 29.0208 4.92059C25.8327 1.76999 21.5087 0 17 0V0ZM17 37.0649C12.4737 32.8649 4.25 23.8139 4.25 16.7999C4.25 13.4582 5.5933 10.2534 7.98439 7.89043C10.3755 5.52748 13.6185 4.19999 17 4.19999C20.3815 4.19999 23.6245 5.52748 26.0156 7.89043C28.4067 10.2534 29.75 13.4582 29.75 16.7999C29.75 23.8139 21.5263 32.8859 17 37.0649ZM17 8.39997C15.3189 8.39997 13.6755 8.89262 12.2777 9.81562C10.8798 10.7386 9.79037 12.0505 9.14702 13.5854C8.50368 15.1203 8.33535 16.8093 8.66332 18.4387C8.9913 20.0681 9.80085 21.5649 10.9896 22.7396C12.1783 23.9144 13.6929 24.7144 15.3417 25.0385C16.9906 25.3626 18.6996 25.1963 20.2528 24.5605C21.806 23.9247 23.1335 22.8481 24.0675 21.4667C25.0015 20.0854 25.5 18.4613 25.5 16.7999C25.5 14.5721 24.6045 12.4356 23.0104 10.8603C21.4163 9.28497 19.2543 8.39997 17 8.39997ZM17 20.9999C16.1594 20.9999 15.3377 20.7536 14.6388 20.2921C13.9399 19.8306 13.3952 19.1747 13.0735 18.4072C12.7518 17.6398 12.6677 16.7953 12.8317 15.9806C12.9956 15.1659 13.4004 14.4175 13.9948 13.8301C14.5892 13.2427 15.3464 12.8427 16.1709 12.6807C16.9953 12.5186 17.8498 12.6018 18.6264 12.9197C19.403 13.2376 20.0667 13.7759 20.5337 14.4666C21.0007 15.1572 21.25 15.9693 21.25 16.7999C21.25 17.9139 20.8022 18.9821 20.0052 19.7698C19.2082 20.5574 18.1272 20.9999 17 20.9999Z" fill="#FFBD58"/>
</svg>
