<svg width="35" height="39" viewBox="0 0 35 39" fill="none" xmlns="http://www.w3.org/2000/svg">
<path d="M33.0555 11.7326L21.3889 1.48789C20.3194 0.529721 18.9349 0 17.5001 0C16.0652 0 14.6807 0.529721 13.6112 1.48789L1.94461 11.7326C1.327 12.2859 0.834151 12.9646 0.498876 13.7236C0.163602 14.4826 -0.00640215 15.3044 0.000184321 16.1344V33.157C0.000184321 34.7067 0.614762 36.1928 1.70872 37.2886C2.80267 38.3844 4.28639 39 5.83348 39H29.1666C30.7137 39 32.1975 38.3844 33.2914 37.2886C34.3854 36.1928 34.9999 34.7067 34.9999 33.157V16.1149C35.0038 15.2882 34.8324 14.4702 34.4972 13.7147C34.1621 12.9593 33.6707 12.2837 33.0555 11.7326V11.7326ZM21.3889 35.1047H13.6112V25.3663C13.6112 24.8498 13.8161 24.3544 14.1807 23.9891C14.5454 23.6238 15.0399 23.4186 15.5556 23.4186H19.4445C19.9602 23.4186 20.4548 23.6238 20.8194 23.9891C21.1841 24.3544 21.3889 24.8498 21.3889 25.3663V35.1047ZM31.1111 33.157C31.1111 33.6735 30.9062 34.1689 30.5416 34.5342C30.1769 34.8995 29.6823 35.1047 29.1666 35.1047H25.2778V25.3663C25.2778 23.8167 24.6632 22.3305 23.5693 21.2347C22.4753 20.1389 20.9916 19.5233 19.4445 19.5233H15.5556C14.0085 19.5233 12.5248 20.1389 11.4309 21.2347C10.3369 22.3305 9.72234 23.8167 9.72234 25.3663V35.1047H5.83348C5.31778 35.1047 4.82321 34.8995 4.45856 34.5342C4.09391 34.1689 3.88905 33.6735 3.88905 33.157V16.1149C3.8894 15.8383 3.94853 15.5651 4.06252 15.3132C4.17651 15.0613 4.34274 14.8366 4.55015 14.6541L16.2167 4.42887C16.5716 4.11662 17.0277 3.94442 17.5001 3.94442C17.9724 3.94442 18.4285 4.11662 18.7834 4.42887L30.45 14.6541C30.6574 14.8366 30.8236 15.0613 30.9376 15.3132C31.0516 15.5651 31.1107 15.8383 31.1111 16.1149V33.157Z" fill="#D9D9D9"/>
</svg>
