<svg width="35" height="35" viewBox="0 0 35 35" fill="none" xmlns="http://www.w3.org/2000/svg">
<path d="M9.62629 7.00095C9.10705 7.00095 8.59946 7.15492 8.16773 7.4434C7.73599 7.73187 7.3995 8.1419 7.20079 8.62162C7.00208 9.10133 6.95009 9.6292 7.05139 10.1385C7.15269 10.6477 7.40273 11.1155 7.76989 11.4827C8.13705 11.8499 8.60485 12.0999 9.11411 12.2012C9.62338 12.3025 10.1512 12.2505 10.631 12.0518C11.1107 11.8531 11.5207 11.5166 11.8092 11.0849C12.0977 10.6531 12.2516 10.1455 12.2516 9.62629C12.2516 8.93001 11.975 8.26224 11.4827 7.76989C10.9903 7.27754 10.3226 7.00095 9.62629 7.00095V7.00095ZM33.4644 15.2445L18.745 0.507596C18.5814 0.345382 18.3875 0.217046 18.1742 0.129947C17.961 0.0428472 17.7327 -0.00130248 17.5023 2.92538e-05H1.75026C1.28607 2.92538e-05 0.840891 0.184428 0.51266 0.51266C0.184428 0.840891 2.92538e-05 1.28607 2.92538e-05 1.75026V17.5023C-0.00130248 17.7327 0.0428472 17.961 0.129947 18.1742C0.217046 18.3875 0.345382 18.5814 0.507596 18.745L15.2445 33.4644C16.229 34.4477 17.5636 35 18.955 35C20.3465 35 21.681 34.4477 22.6655 33.4644L33.4644 22.753C34.4477 21.7685 35 20.434 35 19.0425C35 17.6511 34.4477 16.3165 33.4644 15.332V15.2445ZM30.9966 20.1802L20.1802 30.9791C19.8522 31.3051 19.4086 31.488 18.9463 31.488C18.4839 31.488 18.0403 31.3051 17.7124 30.9791L3.50049 16.7847V3.50049H16.7847L30.9966 17.7124C31.1588 17.8759 31.2871 18.0698 31.3742 18.2831C31.4613 18.4963 31.5055 18.7247 31.5042 18.955C31.5022 19.4142 31.3199 19.8542 30.9966 20.1802V20.1802Z" fill="#FFBD58"/>
</svg>
