<svg width="34" height="34" viewBox="0 0 34 34" fill="none" xmlns="http://www.w3.org/2000/svg">
<path d="M22.9863 17.9319C24.6377 16.6411 25.8431 14.871 26.4348 12.8679C27.0265 10.8648 26.975 8.72834 26.2875 6.75567C25.6 4.78301 24.3107 3.07227 22.599 1.86147C20.8873 0.650664 18.8382 0 16.7369 0C14.6356 0 12.5866 0.650664 10.8749 1.86147C9.16313 3.07227 7.87384 4.78301 7.18635 6.75567C6.49886 8.72834 6.44737 10.8648 7.03904 12.8679C7.63071 14.871 8.83611 16.6411 10.4875 17.9319C7.65777 19.0582 5.1887 20.9263 3.34354 23.337C1.49838 25.7477 0.346318 28.6107 0.0101604 31.6207C-0.0141724 31.8405 0.00530334 32.0629 0.0674752 32.2752C0.129647 32.4874 0.233297 32.6855 0.372509 32.858C0.653659 33.2063 1.06259 33.4295 1.50934 33.4783C1.95609 33.5271 2.40406 33.3976 2.75471 33.1183C3.10535 32.839 3.32995 32.4327 3.3791 31.9889C3.74898 28.7176 5.31907 25.6964 7.7894 23.5025C10.2597 21.3085 13.4571 20.0957 16.7706 20.0957C20.0841 20.0957 23.2815 21.3085 25.7518 23.5025C28.2221 25.6964 29.7922 28.7176 30.1621 31.9889C30.2079 32.4001 30.4054 32.7799 30.7165 33.0549C31.0276 33.33 31.4302 33.4808 31.8466 33.4783H32.0319C32.4734 33.4278 32.877 33.206 33.1547 32.8612C33.4323 32.5164 33.5616 32.0765 33.5142 31.6375C33.1765 28.6189 32.0182 25.7486 30.1636 23.3341C28.3089 20.9197 25.8278 19.0522 22.9863 17.9319V17.9319ZM16.7369 16.7437C15.4043 16.7437 14.1016 16.3512 12.9936 15.6156C11.8855 14.8801 11.0219 13.8347 10.5119 12.6115C10.002 11.3884 9.86854 10.0425 10.1285 8.74402C10.3885 7.44555 11.0302 6.25282 11.9725 5.31668C12.9148 4.38053 14.1154 3.74301 15.4224 3.48472C16.7294 3.22644 18.0842 3.359 19.3154 3.86564C20.5466 4.37228 21.5989 5.23024 22.3393 6.33104C23.0796 7.43183 23.4748 8.72601 23.4748 10.0499C23.4748 11.8252 22.7649 13.5278 21.5013 14.7832C20.2377 16.0385 18.5239 16.7437 16.7369 16.7437Z" fill="#D9D9D9"/>
</svg>
